<mxfile
  host="Electron" 
  agent="Mozilla/5.0 (Macintosh; Intel Mac OS X 10_15_7) AppleWebKit/537.36 (KHTML, like Gecko) draw.io/25.0.2 Chrome/128.0.6613.186 Electron/32.2.5 Safari/537.36" 
  version="25.0.2"
  >
  <diagram
    name="-"
    >
    <mxGraphModel
      grid="1" 
      gridSize="10" 
      guides="1" 
      tooltips="1" 
      connect="1" 
      arrows="1" 
      fold="1" 
      page="1" 
      pageScale="1" 
      pageWidth="1" 
      pageHeight="1" 
      math="0" 
      shadow="0"
      >
      <root>
        <mxCell
          id="page"
          />
        <mxCell
          id="root" 
          parent="page"
          />
        <mxCell
          style="verticalAlign=top;aspect=fixed;align=center;spacingLeft=5;spacingRight=5;spacingBottom=5;strokeColor=none;" 
          id="shape_" 
          parent="root" 
          value=" " 
          vertex="1"
          >
          <mxGeometry
            as="geometry" 
            width="48" 
            height="45" 
            x="0" 
            y="0"
            />
          </mxCell>
        <mxCell
          style="shape=image;editableCssRules=.*;verticalLabelPosition=bottom;labelBackgroundColor=default;verticalAlign=top;aspect=fixed;imageAspect=0;image=data:image/svg+xml,PHN2ZyB4bWxucz0iaHR0cDovL3d3dy53My5vcmcvMjAwMC9zdmciIHZpZXdCb3g9Ii0wLjUgLTAuNSAyOCAyNS4xNzkiIGhlaWdodD0iMjUuMTc5IiB3aWR0aD0iMjgiPiYjeGE7CSAgPHN0eWxlIHR5cGU9InRleHQvY3NzIj4uc3QwIHsgc3RvcC1jb2xvcjogcmdiKDM1LCAxNDksIDI1NSk7IH0gLnN0MSB7IHN0b3AtY29sb3I6IHJnYigwLCA4NywgMjEwKTsgfSA8L3N0eWxlPiYjeGE7CTxkZWZzPiYjeGE7CQk8bGluZWFyR3JhZGllbnQgZ3JhZGllbnRVbml0cz0idXNlclNwYWNlT25Vc2UiIHkyPSIyNC43NDIiIHgyPSIyMS4xNDkiIHkxPSIzLjA3NCIgeDE9IjIuMDM5IiBpZD0iQSI+JiN4YTsJCQk8c3RvcCBjbGFzcz0ic3QwIi8+JiN4YTsJCQk8c3RvcCBjbGFzcz0ic3QxIiBvZmZzZXQ9IjEiLz4mI3hhOwkJPC9saW5lYXJHcmFkaWVudD4mI3hhOwk8L2RlZnM+JiN4YTsJPHBhdGggZmlsbD0idXJsKCNBKSIgZD0iTTI2Ljc1OC0uMzM5YTEuNDEgMS40MSAwIDAgMC0xLjQyOC4wN2MtLjA4NC4wNTYtOC4xMiA1LjM2Mi0xMy4yMyA1LjM2MmgtN2MtMy4xMzYgMC01LjYgMi40NjQtNS42IDUuNnMyLjQ2NCA1LjYgNS42IDUuNmguNTMybDMuODIyIDcuNjNhMS4zNiAxLjM2IDAgMCAwIDEuMDIyLjc1NmguMjI0YTEuNDEgMS40MSAwIDAgMCAuOTk0LS40MDZsMi44LTIuOGExLjM4IDEuMzggMCAwIDAgLjM2NC0xLjMzbC0uOTI0LTMuNjY4YzQuOTk4Ljk1MiAxMS4zMTIgNS4xMjQgMTEuMzk2IDUuMThhMS40MSAxLjQxIDAgMCAwIDEuNDI4LjA3Yy40NjItLjI1Mi43NDItLjcyOC43NDItMS4yNDZWLjg5M2ExLjQxIDEuNDEgMCAwIDAtLjc0Mi0xLjIzMnptLTE1LjY4IDIxLjI4bC0zLjMzMi02LjY2NGExLjM4IDEuMzggMCAwIDAtMS4yNDYtLjc4NEg1LjFjLTEuNTk2IDAtMi44LTEuMjA0LTIuOC0yLjhzMS4yMDQtMi44IDIuOC0yLjhoNS42djdhMS40MSAxLjQxIDAgMCAwIC4wNDIuMzVsMS4yMDQgNC44M3ptMTMuNjIyLTIuOTRjLTIuNjYtMS41NTQtNy4yNjYtMy45Mi0xMS4yLTQuNDFWNy43OTVjMy45MzQtLjQ5IDguNTQtMi44NTYgMTEuMi00LjM5NnoiLz4mI3hhOzwvc3ZnPg;strokeColor=none;" 
          id="alert_sap_" 
          parent="shape_" 
          value=" " 
          vertex="1"
          >
          <mxGeometry
            width="28" 
            height="25" 
            as="geometry" 
            x="10" 
            y="10"
            />
          </mxCell>
        </root>
      </mxGraphModel>
    </diagram>
  </mxfile>